<?xml version="1.0" standalone="no"?>
<!DOCTYPE svg PUBLIC "-//W3C//DTD SVG 20010904//EN"
 "http://www.w3.org/TR/2001/REC-SVG-20010904/DTD/svg10.dtd">
<svg version="1.0" xmlns="http://www.w3.org/2000/svg"
 width="480.000000pt" height="480.000000pt" viewBox="0 0 480.000000 480.000000"
 preserveAspectRatio="xMidYMid meet">
<metadata>
Created by potrace 1.11, written by Peter Selinger 2001-2013
</metadata>
<g transform="translate(0.000000,480.000000) scale(0.100000,-0.100000)"
fill="#000000" stroke="none">
<path d="M0 2400 l0 -2400 2400 0 2400 0 0 2400 0 2400 -2400 0 -2400 0 0
-2400z m2620 248 c0 -515 -4 -918 -9 -912 -7 7 -313 410 -578 759 l-61 81 144
109 144 109 0 381 c0 210 3 385 7 388 3 4 84 7 180 7 l173 0 0 -922z m-970 82
l0 -260 -177 2 -178 3 -3 258 -2 257 180 0 180 0 0 -260z m1858 3 l-3 -258
-177 -3 -178 -2 0 260 0 260 180 0 180 0 -2 -257z m-1849 -985 c37 -123 142
-257 239 -305 l57 -28 332 -3 332 -3 3 -172 c2 -95 0 -176 -3 -180 -10 -13
-685 -2 -744 13 -27 6 -91 31 -140 55 -151 72 -273 200 -363 380 -43 86 -79
191 -70 201 5 4 309 79 339 83 3 1 11 -18 18 -41z"/>
</g>
</svg>
